<?xml version="1.0" standalone="no"?>
<!DOCTYPE svg PUBLIC "-//W3C//DTD SVG 20010904//EN"
 "http://www.w3.org/TR/2001/REC-SVG-20010904/DTD/svg10.dtd">
<svg version="1.0" xmlns="http://www.w3.org/2000/svg"
 width="901.000000pt" height="295.000000pt" viewBox="0 0 901.000000 295.000000"
 preserveAspectRatio="xMidYMid meet">

<g transform="translate(0.000000,295.000000) scale(0.100000,-0.100000)"
fill="#000000" stroke="none">
<path d="M7426 2530 c-279 -44 -532 -194 -696 -412 -79 -104 -117 -178 -98
-189 21 -14 36 -10 43 11 14 45 112 178 183 249 372 371 953 402 1363 73 153
-123 268 -286 328 -467 45 -134 54 -207 48 -374 -5 -174 -30 -270 -107 -420
-139 -271 -404 -476 -690 -535 -354 -72 -696 30 -947 284 -71 71 -80 77 -97
65 -18 -13 -16 -16 23 -62 220 -252 577 -391 907 -354 187 21 339 76 491 177
244 162 412 424 464 719 17 101 6 340 -21 438 -104 383 -398 676 -777 773
-110 28 -314 40 -417 24z"/>
<path d="M3455 1790 c-74 -38 -80 -54 -83 -237 l-3 -163 156 0 156 0 -3 159
c-3 143 -5 163 -24 187 -52 70 -128 91 -199 54z"/>
</g>
</svg>
